<svg xmlns="http://www.w3.org/2000/svg" width="64" height="64" viewBox="0 0 64 64">
  <defs>
    <linearGradient id="bg" x1="0" y1="0" x2="1" y2="1">
      <stop offset="0%" stop-color="#121212" />
      <stop offset="100%" stop-color="#1f1f1f" />
    </linearGradient>
    <linearGradient id="ring" x1="0" y1="0" x2="1" y2="1">
      <stop offset="0%" stop-color="#8B5CF6" />
      <stop offset="70%" stop-color="#6739B7" />
      <stop offset="100%" stop-color="#FFD700" />
    </linearGradient>
    <linearGradient id="spark" x1="0" y1="0" x2="1" y2="0">
      <stop offset="0%" stop-color="#FFD700" />
      <stop offset="100%" stop-color="#FFE55C" />
    </linearGradient>
    <linearGradient id="speed" x1="0" y1="0" x2="1" y2="0">
      <stop offset="0%" stop-color="#FFD700" />
      <stop offset="100%" stop-color="#8B5CF6" />
    </linearGradient>
    <filter id="glow" x="-50%" y="-50%" width="200%" height="200%">
      <feGaussianBlur stdDeviation="2" result="blur" />
      <feMerge>
        <feMergeNode in="blur" />
        <feMergeNode in="SourceGraphic" />
      </feMerge>
    </filter>
  </defs>
  <rect width="64" height="64" rx="16" fill="url(#bg)" />
  <circle cx="32" cy="32" r="25" fill="none" stroke="url(#ring)" stroke-width="4" stroke-linecap="round" filter="url(#glow)">
    <animateTransform attributeName="transform" type="rotate" from="0 32 32" to="360 32 32" dur="5s" repeatCount="indefinite" />
  </circle>
  <g stroke-linecap="round" stroke-linejoin="round">
    <path d="M24 18h12l6 6v18a3 3 0 0 1-3 3H24a3 3 0 0 1-3-3V21a3 3 0 0 1 3-3z" fill="none" stroke="#8B5CF6" stroke-width="2.5" />
    <path d="M36 18l6 6h-6z" fill="#6739B7" opacity="0.4" />
    <path d="M36 18v6h6" fill="none" stroke="#8B5CF6" stroke-width="2.5" />
    <g transform="translate(36 33) scale(1.44) translate(-36 -33) translate(0.2 -0.4)">
      <path d="M40 33l4 1.6v3.6c0 3.6-2.7 5.4-4 6.2-2.2-0.8-4-2.2-4-6.2v-3.6z" fill="#1f1f1f" stroke="#8B5CF6" stroke-width="2.5" vector-effect="non-scaling-stroke" />
      <path d="M38.6 39.4l1.6 1.6 2.8-2.8" fill="none" stroke="#FFD700" stroke-width="1.44" vector-effect="non-scaling-stroke" transform="translate(40.6 39.5) scale(0.7) translate(-40.6 -39.5) translate(-0.8 -1.6)" />
    </g>
  </g>
</svg>
